<?xml version="1.0" encoding="UTF-8" standalone="no"?>
<!DOCTYPE svg PUBLIC "-//W3C//DTD SVG 1.1//EN"
 "http://www.w3.org/Graphics/SVG/1.1/DTD/svg11.dtd">
<!-- Generated by graphviz version 4.0.0 (0)
 -->
<!-- Pages: 1 -->
<svg width="333pt" height="378pt"
 viewBox="0.00 0.00 333.00 378.00" xmlns="http://www.w3.org/2000/svg" xmlns:xlink="http://www.w3.org/1999/xlink">
<g id="graph0" class="graph" transform="scale(1 1) rotate(0) translate(4 374)">
<polygon fill="white" stroke="transparent" points="-4,4 -4,-374 329,-374 329,4 -4,4"/>
<!-- Create -->
<g id="node1" class="node">
<title>Create</title>
<polygon fill="lightblue" stroke="lightblue" points="212.5,-370 147.5,-370 147.5,-334 212.5,-334 212.5,-370"/>
<text text-anchor="middle" x="180" y="-348.3" font-family="Times,serif" font-size="14.00">Create</text>
</g>
<!-- 11 -->
<g id="node2" class="node">
<title>11</title>
<polygon fill="lightblue" stroke="lightblue" points="216.5,-297 143.5,-297 143.5,-261 216.5,-261 216.5,-297"/>
<text text-anchor="middle" x="180" y="-275.3" font-family="Times,serif" font-size="14.00">Backlog</text>
</g>
<!-- Create&#45;&gt;11 -->
<g id="edge1" class="edge">
<title>Create&#45;&gt;11</title>
<path fill="none" stroke="black" d="M180,-333.81C180,-325.79 180,-316.05 180,-307.07"/>
<polygon fill="black" stroke="black" points="183.5,-307.03 180,-297.03 176.5,-307.03 183.5,-307.03"/>
</g>
<!-- 22 -->
<g id="node3" class="node">
<title>22</title>
<polygon fill="lightblue" stroke="lightblue" points="202,-210 0,-210 0,-174 202,-174 202,-210"/>
<text text-anchor="middle" x="101" y="-188.3" font-family="Times,serif" font-size="14.00">Selected for Development</text>
</g>
<!-- 11&#45;&gt;22 -->
<g id="edge2" class="edge">
<title>11&#45;&gt;22</title>
<path fill="none" stroke="black" d="M161.15,-260.96C155.2,-255.37 148.7,-249.05 143,-243 135.53,-235.08 127.76,-226.07 120.96,-217.9"/>
<polygon fill="black" stroke="black" points="123.59,-215.58 114.53,-210.08 118.18,-220.03 123.59,-215.58"/>
<text text-anchor="middle" x="187" y="-231.8" font-family="Times,serif" font-size="14.00">bltoselected</text>
</g>
<!-- 33 -->
<g id="node4" class="node">
<title>33</title>
<polygon fill="lightblue" stroke="lightblue" points="143.5,-123 44.5,-123 44.5,-87 143.5,-87 143.5,-123"/>
<text text-anchor="middle" x="94" y="-101.3" font-family="Times,serif" font-size="14.00">In Progress</text>
</g>
<!-- 22&#45;&gt;33 -->
<g id="edge3" class="edge">
<title>22&#45;&gt;33</title>
<path fill="none" stroke="black" d="M91.92,-173.65C89.5,-168.15 87.22,-161.96 86,-156 84.49,-148.63 84.88,-140.59 86.08,-133.16"/>
<polygon fill="black" stroke="black" points="89.54,-133.7 88.18,-123.19 82.69,-132.25 89.54,-133.7"/>
<text text-anchor="middle" x="154.5" y="-144.8" font-family="Times,serif" font-size="14.00">selectedtoprogress</text>
</g>
<!-- 44 -->
<g id="node5" class="node">
<title>44</title>
<polygon fill="lightblue" stroke="lightblue" points="196,-36 142,-36 142,0 196,0 196,-36"/>
<text text-anchor="middle" x="169" y="-14.3" font-family="Times,serif" font-size="14.00">Done</text>
</g>
<!-- 33&#45;&gt;44 -->
<g id="edge4" class="edge">
<title>33&#45;&gt;44</title>
<path fill="none" stroke="black" d="M94.29,-86.78C95.26,-76.39 97.96,-63.39 105,-54 111.98,-44.69 122.19,-37.56 132.42,-32.23"/>
<polygon fill="black" stroke="black" points="134.17,-35.28 141.72,-27.84 131.19,-28.95 134.17,-35.28"/>
<text text-anchor="middle" x="168" y="-57.8" font-family="Times,serif" font-size="14.00">inprogresstodone</text>
</g>
<!-- 44&#45;&gt;11 -->
<g id="edge5" class="edge">
<title>44&#45;&gt;11</title>
<path fill="none" stroke="black" d="M196.25,-27.16C209.2,-32.56 223.46,-41.08 231,-54 273.35,-126.54 270.14,-168.67 231,-243 228.83,-247.12 225.93,-250.85 222.62,-254.2"/>
<polygon fill="black" stroke="black" points="220.09,-251.76 214.81,-260.94 224.66,-257.06 220.09,-251.76"/>
<text text-anchor="middle" x="293.5" y="-144.8" font-family="Times,serif" font-size="14.00">donetobl</text>
</g>
</g>
</svg>
